<svg id="Layer_1" enable-background="new 0 0 512 512" height="512" viewBox="0 0 512 512" width="512" xmlns="http://www.w3.org/2000/svg"><g><path d="m437.02 74.98c-48.352-48.351-112.64-74.98-181.02-74.98s-132.667 26.629-181.02 74.98c-48.351 48.352-74.98 112.64-74.98 181.02s26.629 132.668 74.98 181.02c48.353 48.351 112.64 74.98 181.02 74.98s132.668-26.629 181.02-74.98 74.98-112.64 74.98-181.02-26.629-132.668-74.98-181.02zm-181.02 422.02c-132.888 0-241-108.112-241-241s108.112-241 241-241 241 108.112 241 241-108.112 241-241 241z"/><path d="m256 60c-46.574 0-91.72 16.63-127.122 46.826-3.151 2.688-3.527 7.422-.839 10.573s7.422 3.528 10.573.839c32.69-27.883 74.379-43.238 117.388-43.238 99.804 0 181 81.196 181 181s-81.196 181-181 181-181-81.196-181-181c0-43.009 15.356-84.698 43.238-117.388 2.688-3.151 2.313-7.886-.839-10.573-3.152-2.688-7.886-2.313-10.573.839-30.196 35.401-46.826 80.548-46.826 127.122 0 108.075 87.925 196 196 196s196-87.925 196-196-87.925-196-196-196z"/><circle cx="256" cy="305.26" r="7.5"/><path d="m334.072 307.195c.514 1.923 1.771 3.563 3.495 4.558l51.971 30.006c1.181.682 2.471 1.006 3.743 1.006 2.59 0 5.108-1.343 6.499-3.745 14.536-25.125 22.22-53.832 22.22-83.02 0-91.532-74.468-166-166-166-91.533 0-166 74.468-166 166 0 29.188 7.684 57.896 22.221 83.02 2.073 3.583 6.656 4.809 10.242 2.739l51.97-30.006c1.724-.995 2.981-2.635 3.496-4.558.514-1.923.243-3.971-.754-5.693-7.966-13.765-12.175-29.498-12.175-45.502 0-50.178 40.822-91 91-91s91 40.822 91 91c0 16.003-4.21 31.737-12.174 45.502-.997 1.723-1.268 3.77-.754 5.693zm56.314 17.733-39.051-22.546c5.907-12.141 9.432-25.36 10.389-38.882h45.075c-1.063 21.443-6.659 42.422-16.413 61.428zm-28.655-76.428c-.973-13.853-4.618-26.978-10.424-38.865l39.034-22.537c9.565 18.574 15.389 39.375 16.472 61.402zm-113.231-98.231c-13.852.973-26.978 4.618-38.865 10.424l-22.537-39.034c18.574-9.565 39.375-15.389 61.402-16.472zm15-45.082c22.027 1.083 42.828 6.907 61.402 16.472l-22.537 39.034c-11.887-5.806-25.013-9.451-38.865-10.424zm-113.231 143.313h-45.082c1.083-22.027 6.907-42.828 16.472-61.402l39.034 22.536c-5.806 11.888-9.451 25.013-10.424 38.866zm-28.654 76.428c-9.754-19.005-15.35-39.985-16.414-61.428h45.075c.957 13.522 4.482 26.741 10.388 38.882zm46.596-128.273-39.028-22.533c11.636-17.96 26.979-33.303 44.939-44.939l22.533 39.028c-11.188 7.588-20.856 17.256-28.444 28.444zm147.134-28.443 22.533-39.028c17.96 11.636 33.303 26.979 44.939 44.939l-39.028 22.533c-7.588-11.189-17.256-20.857-28.444-28.444z"/><path d="m256 180c-12.407 0-22.5 10.094-22.5 22.5v72.78c-9.102 6.848-15 17.737-15 29.979 0 20.678 16.822 37.5 37.5 37.5s37.5-16.822 37.5-37.5c0-12.242-5.898-23.131-15-29.979v-72.78c0-12.406-10.094-22.5-22.5-22.5zm-7.5 22.5c0-4.136 3.364-7.5 7.5-7.5s7.5 3.364 7.5 7.5v66.014c-2.424-.494-4.932-.755-7.5-.755s-5.076.261-7.5.755zm7.5 125.26c-12.407 0-22.5-10.094-22.5-22.5s10.093-22.5 22.5-22.5c12.406 0 22.5 10.094 22.5 22.5s-10.094 22.5-22.5 22.5z"/></g></svg>