<svg id="Capa_1" enable-background="new 0 0 512.006 512.006" height="512" viewBox="0 0 512.006 512.006" width="512" xmlns="http://www.w3.org/2000/svg"><g><path d="m46.014 512.006c24.507 0 53.54-18.193 88.799-55.635 20.537-21.841 49.853-34.365 78.651-34.365h85.078c28.799 0 58.114 12.524 78.651 34.365 35.259 37.441 64.292 55.635 88.799 55.635 16.143 0 29.282-9.258 36.973-26.06 5.771-12.583 9.038-29.648 9.038-50.684 0-86.968-56.268-254.257-142.401-254.257-26.016 0-38.159 8.291-48.882 15.601-8.395 5.728-16.575 11.087-32.195 13.927 6.777-10.649 12.479-23.445 12.479-37.028 0-32.124-31.523-60.645-35.098-63.765-6.46-5.698-24.902-26.503-24.902-42.235s18.442-35.537 24.902-41.235c6.196-5.464 6.812-14.941 1.348-21.152-5.449-6.255-14.912-6.841-21.123-1.406-3.604 3.149-35.127 31.67-35.127 63.794s31.523 61.645 35.098 64.765c6.46 5.698 24.902 25.503 24.902 41.235 0 13.271-13.068 29.346-21.052 37.5h-23.216c-18.633-2.93-26.807-8.496-35.449-14.399-10.723-7.31-22.866-15.601-48.882-15.601-86.133 0-142.402 167.289-142.402 254.257 0 69.258 32.285 76.743 46.011 76.743zm329.989-151c-8.284 0-15-6.716-15-15s6.716-15 15-15 15 6.716 15 15-6.716 15-15 15zm30-60c8.284 0 15 6.716 15 15s-6.716 15-15 15-15-6.716-15-15 6.717-15 15-15zm-30-30c8.284 0 15 6.716 15 15s-6.716 15-15 15-15-6.716-15-15 6.717-15 15-15zm-30 30c8.284 0 15 6.716 15 15s-6.716 15-15 15-15-6.716-15-15 6.717-15 15-15zm-120 0h60c8.291 0 15 6.709 15 15s-6.709 15-15 15h-60c-8.291 0-15-6.709-15-15s6.709-15 15-15zm-120 0h15v-15c0-8.291 6.709-15 15-15s15 6.709 15 15v15h15c8.291 0 15 6.709 15 15s-6.709 15-15 15h-15v15c0 8.291-6.709 15-15 15s-15-6.709-15-15v-15h-15c-8.291 0-15-6.709-15-15s6.709-15 15-15z"/></g></svg>